<?xml version="1.0" encoding="UTF-8" standalone="no"?>
<!DOCTYPE svg PUBLIC "-//W3C//DTD SVG 1.1//EN" "http://www.w3.org/Graphics/SVG/1.1/DTD/svg11.dtd">
<svg version="1.1" xmlns="http://www.w3.org/2000/svg" xmlns:xlink="http://www.w3.org/1999/xlink" preserveAspectRatio="xMidYMid meet" viewBox="0 0 640 640" width="640" height="640"><defs><path d="M411.2 288.23C411.2 387.2 330.86 467.54 231.89 467.54C132.92 467.54 52.58 387.2 52.58 288.23C52.58 189.26 132.92 108.92 231.89 108.92C330.86 108.92 411.2 189.26 411.2 288.23Z" id="b4u53aLMgr"></path><path d="M381.5 417.62C381.5 468.34 340.32 509.53 289.6 509.53C238.88 509.53 197.7 468.34 197.7 417.62C197.7 366.9 238.88 325.72 289.6 325.72C340.32 325.72 381.5 366.9 381.5 417.62Z" id="f2hP1YY4yu"></path><path d="M473.4 417.62C473.4 468.34 432.22 509.53 381.5 509.53C330.78 509.53 289.6 468.34 289.6 417.62C289.6 366.9 330.78 325.72 381.5 325.72C432.22 325.72 473.4 366.9 473.4 417.62Z" id="b2M7dyUUAL"></path><path d="M381.5 351.73C381.5 404.08 340.32 446.57 289.6 446.57C238.88 446.57 197.7 404.08 197.7 351.73C197.7 299.39 238.88 256.9 289.6 256.9C340.32 256.9 381.5 299.39 381.5 351.73Z" id="bFRVmsXen"></path><path d="M558.28 417.62C558.28 468.34 517.1 509.53 466.38 509.53C415.66 509.53 374.48 468.34 374.48 417.62C374.48 366.9 415.66 325.72 466.38 325.72C517.1 325.72 558.28 366.9 558.28 417.62Z" id="awH2NmM79"></path><path d="M277.62 417.62C277.62 468.34 236.44 509.53 185.72 509.53C135 509.53 93.83 468.34 93.83 417.62C93.83 366.9 135 325.72 185.72 325.72C236.44 325.72 277.62 366.9 277.62 417.62Z" id="b1jz9Z65Z5"></path></defs><g><g><g><use xlink:href="#b4u53aLMgr" opacity="1" fill="#ffce21" fill-opacity="1"></use><g><use xlink:href="#b4u53aLMgr" opacity="1" fill-opacity="0" stroke="#782bf0" stroke-width="1" stroke-opacity="0"></use></g></g><g><use xlink:href="#f2hP1YY4yu" opacity="1" fill="#c6c6c6" fill-opacity="1"></use><g><use xlink:href="#f2hP1YY4yu" opacity="1" fill-opacity="0" stroke="#000000" stroke-width="1" stroke-opacity="0"></use></g></g><g><use xlink:href="#b2M7dyUUAL" opacity="1" fill="#c6c6c6" fill-opacity="1"></use><g><use xlink:href="#b2M7dyUUAL" opacity="1" fill-opacity="0" stroke="#000000" stroke-width="1" stroke-opacity="0"></use></g></g><g><use xlink:href="#bFRVmsXen" opacity="1" fill="#c6c6c6" fill-opacity="1"></use><g><use xlink:href="#bFRVmsXen" opacity="1" fill-opacity="0" stroke="#000000" stroke-width="1" stroke-opacity="0"></use></g></g><g><use xlink:href="#awH2NmM79" opacity="1" fill="#c6c6c6" fill-opacity="1"></use><g><use xlink:href="#awH2NmM79" opacity="1" fill-opacity="0" stroke="#000000" stroke-width="1" stroke-opacity="0"></use></g></g><g><use xlink:href="#b1jz9Z65Z5" opacity="1" fill="#c6c6c6" fill-opacity="1"></use><g><use xlink:href="#b1jz9Z65Z5" opacity="1" fill-opacity="0" stroke="#000000" stroke-width="1" stroke-opacity="0"></use></g></g></g></g></svg>