<?xml version="1.0" encoding="UTF-8" standalone="no"?>
<!DOCTYPE svg PUBLIC "-//W3C//DTD SVG 1.1//EN" "http://www.w3.org/Graphics/SVG/1.1/DTD/svg11.dtd">
<svg version="1.1" xmlns="http://www.w3.org/2000/svg" xmlns:xlink="http://www.w3.org/1999/xlink" preserveAspectRatio="xMidYMid meet" viewBox="0 0 640 640" width="640" height="640"><defs><path d="M409.33 288.23C409.33 387.2 328.98 467.54 230.01 467.54C131.05 467.54 50.7 387.2 50.7 288.23C50.7 189.26 131.05 108.92 230.01 108.92C328.98 108.92 409.33 189.26 409.33 288.23Z" id="cSO0r8Lam"></path><path d="M498.69 448.95C498.69 499.68 457.51 540.86 406.79 540.86C356.07 540.86 314.89 499.68 314.89 448.95C314.89 398.23 356.07 357.05 406.79 357.05C457.51 357.05 498.69 398.23 498.69 448.95Z" id="mZ9OmoCyQ"></path><path d="M321.91 163.19C321.91 213.91 280.73 255.09 230.01 255.09C179.29 255.09 138.12 213.91 138.12 163.19C138.12 112.46 179.29 71.28 230.01 71.28C280.73 71.28 321.91 112.46 321.91 163.19Z" id="b2xLFV0W2"></path><path d="M413.81 448.95C413.81 499.68 372.63 540.86 321.91 540.86C271.19 540.86 230.01 499.68 230.01 448.95C230.01 398.23 271.19 357.05 321.91 357.05C372.63 357.05 413.81 398.23 413.81 448.95Z" id="abVAeBzUc"></path><path d="M218.04 448.95C218.04 499.68 176.86 540.86 126.14 540.86C75.42 540.86 34.24 499.68 34.24 448.95C34.24 398.23 75.42 357.05 126.14 357.05C176.86 357.05 218.04 398.23 218.04 448.95Z" id="bfRZi5f0l"></path><path d="M321.91 448.95C321.91 499.68 280.73 540.86 230.01 540.86C179.29 540.86 138.12 499.68 138.12 448.95C138.12 398.23 179.29 357.05 230.01 357.05C280.73 357.05 321.91 398.23 321.91 448.95Z" id="c1yATSkH3L"></path><path d="M321.91 383.07C321.91 435.41 280.73 477.9 230.01 477.9C179.29 477.9 138.12 435.41 138.12 383.07C138.12 330.73 179.29 288.23 230.01 288.23C280.73 288.23 321.91 330.73 321.91 383.07Z" id="fAcgZVTKG"></path><path d="M515.31 163.19C515.31 213.91 474.14 255.09 423.41 255.09C372.69 255.09 331.52 213.91 331.52 163.19C331.52 112.46 372.69 71.28 423.41 71.28C474.14 71.28 515.31 112.46 515.31 163.19Z" id="a397mwq9b4"></path><path d="M423.41 163.19C423.41 213.91 382.24 255.09 331.52 255.09C280.79 255.09 239.62 213.91 239.62 163.19C239.62 112.46 280.79 71.28 331.52 71.28C382.24 71.28 423.41 112.46 423.41 163.19Z" id="amH61SDNZ"></path><path d="M423.41 107.82C423.41 160.16 382.24 202.65 331.52 202.65C280.79 202.65 239.62 160.16 239.62 107.82C239.62 55.47 280.79 12.98 331.52 12.98C382.24 12.98 423.41 55.47 423.41 107.82Z" id="ctzVnUMxL"></path></defs><g><g><g><use xlink:href="#cSO0r8Lam" opacity="1" fill="#ffce21" fill-opacity="1"></use><g><use xlink:href="#cSO0r8Lam" opacity="1" fill-opacity="0" stroke="#782bf0" stroke-width="1" stroke-opacity="0"></use></g></g><g><use xlink:href="#mZ9OmoCyQ" opacity="1" fill="#c6c6c6" fill-opacity="1"></use><g><use xlink:href="#mZ9OmoCyQ" opacity="1" fill-opacity="0" stroke="#000000" stroke-width="1" stroke-opacity="0"></use></g></g><g><use xlink:href="#b2xLFV0W2" opacity="1" fill="#c6c6c6" fill-opacity="1"></use><g><use xlink:href="#b2xLFV0W2" opacity="1" fill-opacity="0" stroke="#000000" stroke-width="1" stroke-opacity="0"></use></g></g><g><use xlink:href="#abVAeBzUc" opacity="1" fill="#c6c6c6" fill-opacity="1"></use><g><use xlink:href="#abVAeBzUc" opacity="1" fill-opacity="0" stroke="#000000" stroke-width="1" stroke-opacity="0"></use></g></g><g><use xlink:href="#bfRZi5f0l" opacity="1" fill="#c6c6c6" fill-opacity="1"></use><g><use xlink:href="#bfRZi5f0l" opacity="1" fill-opacity="0" stroke="#000000" stroke-width="1" stroke-opacity="0"></use></g></g><g><use xlink:href="#c1yATSkH3L" opacity="1" fill="#c6c6c6" fill-opacity="1"></use><g><use xlink:href="#c1yATSkH3L" opacity="1" fill-opacity="0" stroke="#000000" stroke-width="1" stroke-opacity="0"></use></g></g><g><use xlink:href="#fAcgZVTKG" opacity="1" fill="#c6c6c6" fill-opacity="1"></use><g><use xlink:href="#fAcgZVTKG" opacity="1" fill-opacity="0" stroke="#000000" stroke-width="1" stroke-opacity="0"></use></g></g><g><use xlink:href="#a397mwq9b4" opacity="1" fill="#c6c6c6" fill-opacity="1"></use><g><use xlink:href="#a397mwq9b4" opacity="1" fill-opacity="0" stroke="#000000" stroke-width="1" stroke-opacity="0"></use></g></g><g><use xlink:href="#amH61SDNZ" opacity="1" fill="#c6c6c6" fill-opacity="1"></use><g><use xlink:href="#amH61SDNZ" opacity="1" fill-opacity="0" stroke="#000000" stroke-width="1" stroke-opacity="0"></use></g></g><g><use xlink:href="#ctzVnUMxL" opacity="1" fill="#c6c6c6" fill-opacity="1"></use><g><use xlink:href="#ctzVnUMxL" opacity="1" fill-opacity="0" stroke="#000000" stroke-width="1" stroke-opacity="0"></use></g></g></g></g></svg>