<?xml version="1.0" encoding="UTF-8" standalone="no"?>
<!DOCTYPE svg PUBLIC "-//W3C//DTD SVG 1.1//EN" "http://www.w3.org/Graphics/SVG/1.1/DTD/svg11.dtd">
<svg version="1.1" xmlns="http://www.w3.org/2000/svg" xmlns:xlink="http://www.w3.org/1999/xlink" preserveAspectRatio="xMidYMid meet" viewBox="0 0 640 640" width="640" height="640"><defs><path d="M323.99 242.66C323.99 308.07 272.48 361.17 209.04 361.17C145.59 361.17 94.08 308.07 94.08 242.66C94.08 177.25 145.59 124.14 209.04 124.14C272.48 124.14 323.99 177.25 323.99 242.66Z" id="adOUsI6uG"></path><path d="M450.96 242.66C450.96 308.07 399.45 361.17 336.01 361.17C272.56 361.17 221.05 308.07 221.05 242.66C221.05 177.25 272.56 124.14 336.01 124.14C399.45 124.14 450.96 177.25 450.96 242.66Z" id="d6zpTDJpNB"></path><path d="M565.92 242.66C565.92 308.07 514.41 361.17 450.96 361.17C387.52 361.17 336.01 308.07 336.01 242.66C336.01 177.25 387.52 124.14 450.96 124.14C514.41 124.14 565.92 177.25 565.92 242.66Z" id="j3pkHrhFuN"></path><path d="M450.96 171.26C450.96 238.75 399.45 293.55 336.01 293.55C272.56 293.55 221.05 238.75 221.05 171.26C221.05 103.76 272.56 48.96 336.01 48.96C399.45 48.96 450.96 103.76 450.96 171.26Z" id="cIuyTvp9G"></path><path d="M221.29 433.11C221.29 443.75 212.65 452.39 202.01 452.39C191.37 452.39 182.73 443.75 182.73 433.11C182.73 422.47 191.37 413.84 202.01 413.84C212.65 413.84 221.29 422.47 221.29 433.11Z" id="fLbWnqIct"></path><path d="M310.69 506.55C310.69 517.19 302.05 525.83 291.41 525.83C280.77 525.83 272.13 517.19 272.13 506.55C272.13 495.91 280.77 487.27 291.41 487.27C302.05 487.27 310.69 495.91 310.69 506.55Z" id="h2jVc29ScQ"></path><path d="M353.3 409.68C353.3 420.32 344.66 428.95 334.02 428.95C323.38 428.95 314.74 420.32 314.74 409.68C314.74 399.04 323.38 390.4 334.02 390.4C344.66 390.4 353.3 399.04 353.3 409.68Z" id="a2DxU3X1Kx"></path><path d="M425.64 506.55C425.64 517.19 417 525.83 406.36 525.83C395.72 525.83 387.09 517.19 387.09 506.55C387.09 495.91 395.72 487.27 406.36 487.27C417 487.27 425.64 495.91 425.64 506.55Z" id="b3xheQUQAq"></path><path d="M472.36 419.79C472.36 430.43 463.72 439.07 453.08 439.07C442.44 439.07 433.8 430.43 433.8 419.79C433.8 409.15 442.44 400.51 453.08 400.51C463.72 400.51 472.36 409.15 472.36 419.79Z" id="l5Z6xexTc4"></path></defs><g><g><g><use xlink:href="#adOUsI6uG" opacity="1" fill="#c6c6c6" fill-opacity="1"></use><g><use xlink:href="#adOUsI6uG" opacity="1" fill-opacity="0" stroke="#000000" stroke-width="1" stroke-opacity="0"></use></g></g><g><use xlink:href="#d6zpTDJpNB" opacity="1" fill="#c6c6c6" fill-opacity="1"></use><g><use xlink:href="#d6zpTDJpNB" opacity="1" fill-opacity="0" stroke="#000000" stroke-width="1" stroke-opacity="0"></use></g></g><g><use xlink:href="#j3pkHrhFuN" opacity="1" fill="#c6c6c6" fill-opacity="1"></use><g><use xlink:href="#j3pkHrhFuN" opacity="1" fill-opacity="0" stroke="#000000" stroke-width="1" stroke-opacity="0"></use></g></g><g><use xlink:href="#cIuyTvp9G" opacity="1" fill="#c6c6c6" fill-opacity="1"></use><g><use xlink:href="#cIuyTvp9G" opacity="1" fill-opacity="0" stroke="#000000" stroke-width="1" stroke-opacity="0"></use></g></g><g><use xlink:href="#fLbWnqIct" opacity="1" fill="#9ddcff" fill-opacity="1"></use></g><g><use xlink:href="#h2jVc29ScQ" opacity="1" fill="#9ddcff" fill-opacity="1"></use></g><g><use xlink:href="#a2DxU3X1Kx" opacity="1" fill="#9ddcff" fill-opacity="1"></use></g><g><use xlink:href="#b3xheQUQAq" opacity="1" fill="#9ddcff" fill-opacity="1"></use></g><g><use xlink:href="#l5Z6xexTc4" opacity="1" fill="#9ddcff" fill-opacity="1"></use></g></g></g></svg>