<?xml version="1.0" encoding="UTF-8" standalone="no"?>
<!DOCTYPE svg PUBLIC "-//W3C//DTD SVG 1.1//EN" "http://www.w3.org/Graphics/SVG/1.1/DTD/svg11.dtd">
<svg version="1.1" xmlns="http://www.w3.org/2000/svg" xmlns:xlink="http://www.w3.org/1999/xlink" preserveAspectRatio="xMidYMid meet" viewBox="0 0 640 640" width="640" height="640"><defs><path d="M342.23 320L368.39 392.64L394.78 384.91L424.14 505.45L360.78 417.36L339.32 430.78L278.99 326.95L342.23 320Z" id="lb1dYwiWh"></path><path d="M313.99 232.66C313.99 298.07 262.48 351.17 199.04 351.17C135.59 351.17 84.08 298.07 84.08 232.66C84.08 167.25 135.59 114.14 199.04 114.14C262.48 114.14 313.99 167.25 313.99 232.66Z" id="c3lWHC05z0"></path><path d="M440.96 232.66C440.96 298.07 389.45 351.17 326.01 351.17C262.56 351.17 211.05 298.07 211.05 232.66C211.05 167.25 262.56 114.14 326.01 114.14C389.45 114.14 440.96 167.25 440.96 232.66Z" id="b20Vo2ovYM"></path><path d="M555.92 232.66C555.92 298.07 504.41 351.17 440.96 351.17C377.52 351.17 326.01 298.07 326.01 232.66C326.01 167.25 377.52 114.14 440.96 114.14C504.41 114.14 555.92 167.25 555.92 232.66Z" id="e1m5xvoke6"></path><path d="M440.96 161.26C440.96 228.75 389.45 283.55 326.01 283.55C262.56 283.55 211.05 228.75 211.05 161.26C211.05 93.76 262.56 38.96 326.01 38.96C389.45 38.96 440.96 93.76 440.96 161.26Z" id="dv3JmK0Zz"></path><path d="M262.16 437.15C262.16 447.79 253.53 456.43 242.89 456.43C232.25 456.43 223.61 447.79 223.61 437.15C223.61 426.51 232.25 417.87 242.89 417.87C253.53 417.87 262.16 426.51 262.16 437.15Z" id="eaeOnjNqN"></path><path d="M253.66 421.23L211.05 396.23L224.61 443.1L253.66 421.23Z" id="aVqVUV7WW"></path><path d="M351.56 510.59C351.56 521.23 342.92 529.86 332.28 529.86C321.64 529.86 313.01 521.23 313.01 510.59C313.01 499.95 321.64 491.31 332.28 491.31C342.92 491.31 351.56 499.95 351.56 510.59Z" id="c4dL9HUGf2"></path><path d="M343.06 494.67L300.45 469.67L314.01 516.54L343.06 494.67Z" id="amucpzTZG"></path><path d="M513.24 423.83C513.24 434.47 504.6 443.1 493.96 443.1C483.32 443.1 474.68 434.47 474.68 423.83C474.68 413.19 483.32 404.55 493.96 404.55C504.6 404.55 513.24 413.19 513.24 423.83Z" id="acaTMQ1ww"></path><path d="M504.74 407.91L462.12 382.91L475.68 429.78L504.74 407.91Z" id="b2Tpry6zx7"></path></defs><g><g><g><use xlink:href="#lb1dYwiWh" opacity="1" fill="#ffe805" fill-opacity="1"></use><g><use xlink:href="#lb1dYwiWh" opacity="1" fill-opacity="0" stroke="#000000" stroke-width="1" stroke-opacity="0"></use></g></g><g><use xlink:href="#c3lWHC05z0" opacity="1" fill="#c6c6c6" fill-opacity="1"></use><g><use xlink:href="#c3lWHC05z0" opacity="1" fill-opacity="0" stroke="#000000" stroke-width="1" stroke-opacity="0"></use></g></g><g><use xlink:href="#b20Vo2ovYM" opacity="1" fill="#c6c6c6" fill-opacity="1"></use><g><use xlink:href="#b20Vo2ovYM" opacity="1" fill-opacity="0" stroke="#000000" stroke-width="1" stroke-opacity="0"></use></g></g><g><use xlink:href="#e1m5xvoke6" opacity="1" fill="#c6c6c6" fill-opacity="1"></use><g><use xlink:href="#e1m5xvoke6" opacity="1" fill-opacity="0" stroke="#000000" stroke-width="1" stroke-opacity="0"></use></g></g><g><use xlink:href="#dv3JmK0Zz" opacity="1" fill="#c6c6c6" fill-opacity="1"></use><g><use xlink:href="#dv3JmK0Zz" opacity="1" fill-opacity="0" stroke="#000000" stroke-width="1" stroke-opacity="0"></use></g></g><g><use xlink:href="#eaeOnjNqN" opacity="1" fill="#3dbaff" fill-opacity="1"></use></g><g><use xlink:href="#aVqVUV7WW" opacity="1" fill="#3dbaff" fill-opacity="1"></use><g><use xlink:href="#aVqVUV7WW" opacity="1" fill-opacity="0" stroke="#000000" stroke-width="1" stroke-opacity="0"></use></g></g><g><use xlink:href="#c4dL9HUGf2" opacity="1" fill="#3dbaff" fill-opacity="1"></use></g><g><use xlink:href="#amucpzTZG" opacity="1" fill="#3dbaff" fill-opacity="1"></use><g><use xlink:href="#amucpzTZG" opacity="1" fill-opacity="0" stroke="#000000" stroke-width="1" stroke-opacity="0"></use></g></g><g><use xlink:href="#acaTMQ1ww" opacity="1" fill="#3dbaff" fill-opacity="1"></use></g><g><use xlink:href="#b2Tpry6zx7" opacity="1" fill="#3dbaff" fill-opacity="1"></use><g><use xlink:href="#b2Tpry6zx7" opacity="1" fill-opacity="0" stroke="#000000" stroke-width="1" stroke-opacity="0"></use></g></g></g></g></svg>